<svg width="200" height="40" viewBox="0 0 200 40" fill="none" xmlns="http://www.w3.org/2000/svg">
  <!-- Logo Mark -->
  <g transform="translate(4, 4)">
    <!-- Document 1 (left) -->
    <rect x="0" y="4" width="10" height="14" rx="1.5" fill="#ffffff" fill-opacity="0.2" stroke="#ffffff" stroke-width="0.5"/>
    <rect x="2" y="7" width="6" height="1" fill="#ffffff" fill-opacity="0.8"/>
    <rect x="2" y="9" width="4" height="1" fill="#ffffff" fill-opacity="0.8"/>
    <rect x="2" y="11" width="5" height="1" fill="#ffffff" fill-opacity="0.8"/>
    
    <!-- Arrow (center) -->
    <g transform="translate(16, 11)">
      <path d="M-2 0 L2 0 M0 -2 L2 0 L0 2" stroke="#ffffff" stroke-width="2" stroke-linecap="round" stroke-linejoin="round" fill="none"/>
    </g>
    
    <!-- Document 2 (right) -->
    <rect x="22" y="4" width="10" height="14" rx="1.5" fill="#ffffff" fill-opacity="0.3" stroke="#ffffff" stroke-width="0.5"/>
    <rect x="24" y="7" width="6" height="1" fill="#ffffff"/>
    <rect x="24" y="9" width="4" height="1" fill="#ffffff"/>
    <rect x="24" y="11" width="5" height="1" fill="#ffffff"/>
    
    <!-- Morphing effect dots -->
    <circle cx="15" cy="6" r="0.5" fill="#ffffff" opacity="0.8"/>
    <circle cx="17" cy="8" r="0.5" fill="#ffffff" opacity="0.6"/>
    <circle cx="15" cy="16" r="0.5" fill="#ffffff" opacity="0.8"/>
  </g>
  
  <!-- Wordmark -->
  <text x="48" y="26" font-family="Inter, sans-serif" font-weight="700" font-size="18" letter-spacing="-0.02em">
    <tspan fill="#ffffff">Convert</tspan><tspan fill="#2563eb">Morph</tspan>
  </text>
</svg>
