<svg width="280" height="60" viewBox="0 0 280 60" fill="none" xmlns="http://www.w3.org/2000/svg">
  <defs>
    <linearGradient id="bgGradient" x1="0%" y1="0%" x2="100%" y2="100%">
      <stop offset="0%" stopColor="#3b82f6" />
      <stop offset="100%" stopColor="#2563eb" />
    </linearGradient>
    <linearGradient id="docGradient" x1="0%" y1="0%" x2="100%" y2="100%">
      <stop offset="0%" stopColor="#f8fafc" />
      <stop offset="100%" stopColor="#e2e8f0" />
    </linearGradient>
    <linearGradient id="morphGradient" x1="0%" y1="0%" x2="100%" y2="100%">
      <stop offset="0%" stopColor="#dbeafe" />
      <stop offset="100%" stopColor="#bfdbfe" />
    </linearGradient>
    <linearGradient id="textGradient" x1="0%" y1="0%" x2="100%" y2="0%">
      <stop offset="0%" stopColor="#2563eb" />
      <stop offset="100%" stopColor="#1d4ed8" />
    </linearGradient>
  </defs>
  
  <!-- Logo Mark -->
  <g transform="translate(6, 6)">
    <!-- Background circle with gradient -->
    <circle cx="24" cy="24" r="22" fill="url(#bgGradient)" opacity="0.1" stroke="url(#bgGradient)" stroke-width="1"/>
    
    <!-- Document 1 (left) - Enhanced -->
    <rect x="8" y="12" width="14" height="18" rx="2" fill="url(#docGradient)" stroke="#cbd5e1" stroke-width="1"/>
    <rect x="10" y="16" width="10" height="1.5" rx="0.75" fill="#64748b"/>
    <rect x="10" y="19" width="7" height="1.5" rx="0.75" fill="#64748b"/>
    <rect x="10" y="22" width="8" height="1.5" rx="0.75" fill="#64748b"/>
    <rect x="10" y="25" width="6" height="1.5" rx="0.75" fill="#64748b"/>
    
    <!-- Dynamic Arrow (center) -->
    <g transform="translate(24, 24)">
      <circle cx="0" cy="0" r="6" fill="url(#bgGradient)" opacity="0.2"/>
      <path d="M-4 0 L4 0 M1 -3 L4 0 L1 3" stroke="#2563eb" stroke-width="3" stroke-linecap="round" stroke-linejoin="round" fill="none"/>
    </g>
    
    <!-- Document 2 (right) - Enhanced with morph effect -->
    <rect x="26" y="12" width="14" height="18" rx="2" fill="url(#morphGradient)" stroke="#2563eb" stroke-width="1"/>
    <rect x="28" y="16" width="10" height="1.5" rx="0.75" fill="#2563eb"/>
    <rect x="28" y="19" width="7" height="1.5" rx="0.75" fill="#2563eb"/>
    <rect x="28" y="22" width="8" height="1.5" rx="0.75" fill="#2563eb"/>
    <rect x="28" y="25" width="9" height="1.5" rx="0.75" fill="#2563eb"/>
    
    <!-- Enhanced Morphing effect particles -->
    <circle cx="20" cy="14" r="1" fill="#3b82f6" opacity="0.8"/>
    <circle cx="28" cy="18" r="1.2" fill="#2563eb" opacity="0.6"/>
    <circle cx="22" cy="28" r="0.8" fill="#3b82f6" opacity="0.7"/>
    <circle cx="26" cy="32" r="1" fill="#2563eb" opacity="0.5"/>
  </g>
  
  <!-- Wordmark -->
  <g transform="translate(70, 15)">
    <text x="0" y="24" font-family="Inter, sans-serif" font-weight="900" font-size="24" letter-spacing="-0.02em">
      <tspan fill="#111827">Convert</tspan><tspan fill="url(#textGradient)">Morph</tspan>
    </text>
    <text x="0" y="40" font-family="Inter, sans-serif" font-weight="500" font-size="10" letter-spacing="0.1em" text-transform="uppercase" fill="#6b7280">PDF Tools</text>
  </g>
</svg>
