<svg width="32" height="32" viewBox="0 0 32 32" fill="none" xmlns="http://www.w3.org/2000/svg">
  <!-- Background circle -->
  <circle cx="16" cy="16" r="16" fill="#2563eb"/>
  
  <!-- Document 1 (left) -->
  <rect x="4" y="6" width="10" height="14" rx="1.5" fill="#ffffff" fill-opacity="0.2" stroke="#ffffff" stroke-width="0.5"/>
  <rect x="6" y="9" width="6" height="1" fill="#ffffff" fill-opacity="0.8"/>
  <rect x="6" y="11" width="4" height="1" fill="#ffffff" fill-opacity="0.8"/>
  <rect x="6" y="13" width="5" height="1" fill="#ffffff" fill-opacity="0.8"/>
  
  <!-- Arrow (center) -->
  <g transform="translate(16, 13)">
    <path d="M-2 0 L2 0 M0 -2 L2 0 L0 2" stroke="#ffffff" stroke-width="2" stroke-linecap="round" stroke-linejoin="round" fill="none"/>
  </g>
  
  <!-- Document 2 (right) -->
  <rect x="18" y="6" width="10" height="14" rx="1.5" fill="#ffffff" fill-opacity="0.3" stroke="#ffffff" stroke-width="0.5"/>
  <rect x="20" y="9" width="6" height="1" fill="#ffffff"/>
  <rect x="20" y="11" width="4" height="1" fill="#ffffff"/>
  <rect x="20" y="13" width="5" height="1" fill="#ffffff"/>
  
  <!-- Morphing effect dots -->
  <circle cx="15" cy="8" r="0.5" fill="#ffffff" opacity="0.8"/>
  <circle cx="17" cy="10" r="0.5" fill="#ffffff" opacity="0.6"/>
  <circle cx="15" cy="18" r="0.5" fill="#ffffff" opacity="0.8"/>
</svg>
